<svg xmlns="http://www.w3.org/2000/svg" fill="none" viewBox="0 0 20 20">
  <path fill="#7C3AED" d="M15.48 2.1a3.92 3.92 0 0 0-5.3.42L2.7 10a1 1 0 0 0 1.41 1.41l1.94-1.94 4.48 4.48-1.94 1.94A1 1 0 1 0 10 17.3l7.48-7.48a3.92 3.92 0 0 0 .42-5.3 7.4 7.4 0 0 0-2.42-2.42"/>
  <path fill="#C4B5FD" d="M11.64 3.94a1.86 1.86 0 0 1 2.52-.2 5.45 5.45 0 0 1 2.1 2.1 1.86 1.86 0 0 1-.2 2.52l-.72.72-4.42-4.42zM7.47 8.05l2.06-2.06 4.48 4.48-2.06 2.06z"/>
  <path fill="#FFFFFF" d="M3.62 14.08a1 1 0 0 1 1.42 0l.88.88.88-.88a1 1 0 0 1 1.42 1.42l-1.59 1.58a1 1 0 0 1-1.41 0l-1.6-1.58a1 1 0 0 1 0-1.42"/>
</svg>
